<svg width="256" height="256" viewBox="0 0 256 256" fill="none" xmlns="http://www.w3.org/2000/svg">
<rect width="256" height="256" rx="128" fill="#0F4ECC"/>
<g clip-path="url(#clip0_7880_1078)">
<path d="M111.594 171.406C109.062 170.844 107.469 168.969 107.094 166.437V150.969C107.75 147.5 109.719 145.906 112.344 145.437L115.531 144.969C117.312 144.687 119.281 144.406 121.062 144.125C121.25 143.562 121.531 142.906 121.812 142.344C120.312 140.187 118.625 138.219 117.031 136.156C114.687 133.25 114.594 130.719 116.844 127.625C117.312 126.969 117.875 126.312 118.437 125.75L120.125 123.875C122.187 121.812 124.156 119.656 126.594 117.687C129.687 115.437 132.125 114.125 136.25 117.312L137.844 118.625C139.25 119.75 140.844 120.875 142.25 122C142.812 121.812 143.375 121.531 143.937 121.344V120.594C144.312 118.25 144.594 115.906 145.062 113.562L145.344 112.062C146 109.344 147.781 107.75 150.031 107.281H150.594L165.875 107.187C168.969 107.469 170.844 109.437 171.312 112.344C171.781 115.344 172.25 118.344 172.625 121.25C173.281 121.531 173.75 121.719 174.312 122C175.344 121.156 176.469 120.406 177.5 119.562V61.9062C177.5 57.0312 173.469 53 168.594 53H61.9062C57.0312 53 53 57.0312 53 61.9062V168.875C53 173.75 57.0312 177.781 61.9062 177.781H119.844C120.312 177.219 120.687 176.656 121.156 176.094L121.906 175.062C121.531 174.312 121.25 173.562 120.969 172.719L111.594 171.406ZM70.8125 70.9062H159.969V88.6249H70.8125V70.9062Z" fill="white"/>
<path d="M189.5 170C190.156 167.75 191.844 166.437 194.094 166.156C197.094 165.781 200 165.312 202.906 164.844C203 160.812 203 156.781 202.906 152.75C199.625 152.187 196.719 151.812 193.906 151.437C191.844 151.062 190.344 149.844 189.688 147.875C189.313 146.75 189.125 146.375 188.938 145.812L188.469 144.875C186.969 141.875 187.531 140.375 189.219 138.031L194.281 131.469C194.281 131.469 193.438 130.625 192.781 130.062L190.156 127.437C188.563 125.844 186.969 124.25 185.375 122.844L183.406 124.25C181.719 125.469 179.938 126.875 178.344 128.187C178.156 128.281 178.063 128.375 177.875 128.469C176.281 129.5 174.313 129.594 172.625 128.844C171.5 128.281 170.938 128 170.469 127.906C168.688 127.437 166.438 126.219 165.969 122.75C165.594 119.937 165.125 117.125 164.75 114.219H152.563L152.375 114.781C152 117.031 151.719 119.187 151.438 121.437L151.156 123.5C150.781 126.312 148.813 127.344 147.688 127.625C146.75 128 145.719 128.375 144.594 128.937C143.563 129.5 141.219 130.156 138.875 128.281C137.188 126.969 135.406 125.562 133.719 124.25L132.125 122.937L131.938 122.844C131.844 122.937 131.656 123.031 131.469 123.219C129.313 124.906 127.531 126.781 125.75 128.75L123.969 130.625C123.969 130.625 123.313 131.281 123.125 131.656C125.094 134.187 126.781 136.344 128.469 138.594C129.875 140.469 130.063 142.719 128.938 144.875C128.469 145.719 128.094 146.562 127.813 147.594C127.25 149.469 125.563 150.875 123.5 151.156C121.25 151.437 119.188 151.812 116.938 152.094L114.406 152.469V164.562L123.031 165.875C125.469 166.156 126.875 167.187 127.531 169.156C128 170.469 128.469 171.781 129.125 173C129.969 174.594 129.875 176.375 128.844 177.875C128.844 178.062 128.656 178.25 128.563 178.437L127.063 180.594C125.75 182.281 124.344 184.062 123.031 185.75C125.188 188 127.063 189.781 128.844 191.469L130.625 193.25C130.625 193.25 131.469 194 131.844 194.375C134.656 192.312 136.719 190.719 138.875 189.031C140.75 187.625 143 187.437 145.156 188.469C145.813 188.844 146.469 189.125 147.125 189.312C148.438 189.687 150.875 190.812 151.344 194.281C151.719 197.187 152.094 200 152.656 202.906H164.75C165.406 199.812 165.688 197.375 166.063 194.75V193.812C166.438 191.656 167.656 190.156 169.719 189.5C170.656 189.219 171.688 188.75 172.719 188.281C174.594 187.344 176.656 187.531 178.25 188.844L185.375 194.375L186.031 194C189.031 191.469 191.656 188.656 194.188 185.75C194.281 185.656 194.375 185.562 194.469 185.469C194.375 185.375 194.281 185.281 194.188 185.094C192.406 182.75 190.531 180.594 188.844 178.156C187.531 176.469 187.438 174.312 188.469 172.531C188.938 171.781 189.219 170.937 189.594 169.906L189.5 170ZM158.469 174.594C149.563 174.5 142.531 167.375 142.531 158.562C142.625 149.656 149.75 142.625 158.563 142.625C167.469 142.719 174.5 149.844 174.5 158.656C174.406 167.562 167.281 174.687 158.469 174.594Z" fill="white"/>
</g>
<defs>
<clipPath id="clip0_7880_1078">
<rect width="150" height="150" fill="white" transform="translate(53 53)"/>
</clipPath>
</defs>
</svg>
